# Blender 4.5.1 LTS
# www.blender.org
o cube
v 0.062500 0.495000 0.250000
v 0.062500 0.495000 -0.250000
v 0.062500 0.000000 0.250000
v 0.062500 -0.000000 -0.250000
v -0.250000 0.495000 -0.250000
v -0.250000 0.495000 0.250000
v -0.250000 -0.000000 -0.250000
v -0.250000 0.000000 0.250000
vn -0.0000 -0.0000 -1.0000
vn 1.0000 -0.0000 -0.0000
vn -0.0000 -0.0000 1.0000
vn -1.0000 -0.0000 -0.0000
vn -0.0000 1.0000 -0.0000
vn -0.0000 -1.0000 -0.0000
vt 0.203125 0.453125
vt 0.125000 0.578125
vt 0.125000 0.453125
vt 0.468750 0.468750
vt 0.343750 0.593750
vt 0.343750 0.468750
vt 0.281250 0.453125
vt 0.203125 0.578125
vt 0.000000 0.578125
vt 0.000000 0.453125
vt 0.468750 0.593750
vt 0.546875 0.468750
vt 0.546875 0.593750
vt 0.515625 0.703125
vt 0.593750 0.828125
vt 0.593750 0.703125
vt 0.281250 0.578125
vt 0.515625 0.828125
s 1
usemtl m_473b9039-2ee7-09d2-f37f-db0f97db6bdd
f 7/1/1 2/2/1 4/3/1
f 4/4/2 1/5/2 3/6/2
f 3/7/3 6/8/3 8/1/3
f 8/3/4 5/9/4 7/10/4
f 1/11/5 5/12/5 6/13/5
f 4/14/6 8/15/6 7/16/6
f 7/1/1 5/8/1 2/2/1
f 4/4/2 2/11/2 1/5/2
f 3/7/3 1/17/3 6/8/3
f 8/3/4 6/2/4 5/9/4
f 1/11/5 2/4/5 5/12/5
f 4/14/6 3/18/6 8/15/6
o cube.001
v 0.250000 1.181250 0.375000
v 0.250000 1.181250 -0.375000
v 0.250000 0.493750 0.375000
v 0.250000 0.493750 -0.375000
v -0.437500 1.181250 -0.375000
v -0.437500 1.181250 0.375000
v -0.437500 0.493750 -0.375000
v -0.437500 0.493750 0.375000
vn -0.0000 -0.0000 -1.0000
vn 1.0000 -0.0000 -0.0000
vn -0.0000 -0.0000 1.0000
vn -1.0000 -0.0000 -0.0000
vn -0.0000 1.0000 -0.0000
vn -0.0000 -1.0000 -0.0000
vt 0.515625 0.593750
vt 0.343750 0.765625
vt 0.343750 0.593750
vt 0.187500 0.765625
vt 0.000000 0.937500
vt 0.000000 0.765625
vt 0.546875 0.828125
vt 0.375000 1.000000
vt 0.375000 0.828125
vt 0.375000 0.765625
vt 0.187500 0.937500
vt 0.171875 0.578125
vt 0.171875 0.765625
vt 0.343750 0.578125
vt 0.515625 0.765625
vt 0.546875 1.000000
vt 0.375000 0.937500
vt 0.000000 0.578125
s 1
usemtl m_473b9039-2ee7-09d2-f37f-db0f97db6bdd
f 15/19/7 10/20/7 12/21/7
f 12/22/8 9/23/8 11/24/8
f 11/25/9 14/26/9 16/27/9
f 16/28/10 13/29/10 15/22/10
f 9/24/11 13/30/11 14/31/11
f 12/30/12 16/20/12 15/32/12
f 15/19/7 13/33/7 10/20/7
f 12/22/8 10/29/8 9/23/8
f 11/25/9 9/34/9 14/26/9
f 16/28/10 14/35/10 13/29/10
f 9/24/11 10/36/11 13/30/11
f 12/30/12 11/31/12 16/20/12
o cube.002
v 0.150975 0.125000 0.333022
v 0.217176 0.125000 0.173196
v 0.150975 -0.062500 0.333022
v 0.217176 -0.062500 0.173196
v -0.038582 0.125000 0.067258
v -0.104784 0.125000 0.227083
v -0.038582 -0.062500 0.067258
v -0.104784 -0.062500 0.227083
vn 0.3827 -0.0000 -0.9239
vn 0.9239 -0.0000 0.3827
vn -0.3827 -0.0000 0.9239
vn -0.9239 -0.0000 -0.3827
vn -0.0000 1.0000 -0.0000
vn -0.0000 -1.0000 -0.0000
vt 0.617188 0.953125
vt 0.546875 1.000000
vt 0.546875 0.953125
vt 0.328125 0.531250
vt 0.281250 0.578125
vt 0.281250 0.531250
vt 0.617188 0.906250
vt 0.546875 0.906250
vt 0.515625 0.781250
vt 0.468750 0.828125
vt 0.468750 0.781250
vt 0.093750 0.453125
vt 0.164062 0.406250
vt 0.164062 0.453125
vt 0.546875 0.859375
vt 0.617188 0.859375
vt 0.617188 1.000000
vt 0.328125 0.578125
vt 0.515625 0.828125
vt 0.093750 0.406250
s 1
usemtl m_473b9039-2ee7-09d2-f37f-db0f97db6bdd
f 23/37/13 18/38/13 20/39/13
f 20/40/14 17/41/14 19/42/14
f 19/43/15 22/39/15 24/44/15
f 24/45/16 21/46/16 23/47/16
f 17/48/17 21/49/17 22/50/17
f 20/51/18 24/43/18 23/52/18
f 23/37/13 21/53/13 18/38/13
f 20/40/14 18/54/14 17/41/14
f 19/43/15 17/37/15 22/39/15
f 24/45/16 22/55/16 21/46/16
f 17/48/17 18/56/17 21/49/17
f 20/51/18 19/44/18 24/43/18
o cube.003
v 0.217176 0.125000 -0.173196
v 0.150975 0.125000 -0.333022
v 0.217176 -0.062500 -0.173196
v 0.150975 -0.062500 -0.333022
v -0.104784 0.125000 -0.227083
v -0.038582 0.125000 -0.067258
v -0.104784 -0.062500 -0.227083
v -0.038582 -0.062500 -0.067258
vn -0.3827 -0.0000 -0.9239
vn 0.9239 -0.0000 -0.3827
vn 0.3827 -0.0000 0.9239
vn -0.9239 -0.0000 0.3827
vn -0.0000 1.0000 -0.0000
vn -0.0000 -1.0000 -0.0000
vt 0.242188 0.406250
vt 0.171875 0.453125
vt 0.171875 0.406250
vt 0.328125 0.484375
vt 0.281250 0.531250
vt 0.281250 0.484375
vt 0.617188 0.562500
vt 0.546875 0.609375
vt 0.546875 0.562500
vt 0.609375 0.421875
vt 0.562500 0.468750
vt 0.562500 0.421875
vt 0.617188 0.515625
vt 0.546875 0.468750
vt 0.617188 0.468750
vt 0.242188 0.453125
vt 0.328125 0.531250
vt 0.617188 0.609375
vt 0.609375 0.468750
vt 0.546875 0.515625
s 1
usemtl m_473b9039-2ee7-09d2-f37f-db0f97db6bdd
f 31/57/19 26/58/19 28/59/19
f 28/60/20 25/61/20 27/62/20
f 27/63/21 30/64/21 32/65/21
f 32/66/22 29/67/22 31/68/22
f 25/65/23 29/69/23 30/63/23
f 28/70/24 32/69/24 31/71/24
f 31/57/19 29/72/19 26/58/19
f 28/60/20 26/73/20 25/61/20
f 27/63/21 25/74/21 30/64/21
f 32/66/22 30/75/22 29/67/22
f 25/65/23 26/76/23 29/69/23
f 28/70/24 27/76/24 32/69/24
o cube.004
v 0.267326 0.378591 -0.350471
v 0.179238 0.324651 -0.459241
v 0.274328 0.236567 -0.285709
v 0.186240 0.182626 -0.394479
v -0.123823 0.403741 -0.253029
v -0.035735 0.457682 -0.144258
v -0.116821 0.261717 -0.188267
v -0.028733 0.315658 -0.079497
vn -0.5873 -0.3596 -0.7251
vn 0.8082 -0.2109 -0.5499
vn 0.5873 0.3596 0.7251
vn -0.8082 0.2109 0.5499
vn -0.0448 0.9090 -0.4145
vn 0.0448 -0.9090 0.4145
vt 0.343750 0.960938
vt 0.250000 1.000000
vt 0.250000 0.960938
vt 0.289062 0.382812
vt 0.250000 0.421875
vt 0.250000 0.382812
vt 0.468750 0.789062
vt 0.375000 0.828125
vt 0.375000 0.789062
vt 0.296875 0.382812
vt 0.335938 0.421875
vt 0.296875 0.421875
vt 0.515625 0.703125
vt 0.609375 0.664062
vt 0.609375 0.703125
vt 0.515625 0.617188
vt 0.609375 0.656250
vt 0.609375 0.617188
vt 0.343750 1.000000
vt 0.289062 0.421875
vt 0.468750 0.828125
vt 0.335938 0.382812
vt 0.515625 0.664062
vt 0.515625 0.656250
s 1
usemtl m_473b9039-2ee7-09d2-f37f-db0f97db6bdd
f 39/77/25 34/78/25 36/79/25
f 36/80/26 33/81/26 35/82/26
f 35/83/27 38/84/27 40/85/27
f 39/86/28 38/87/28 37/88/28
f 33/89/29 37/90/29 38/91/29
f 36/92/30 40/93/30 39/94/30
f 39/77/25 37/95/25 34/78/25
f 36/80/26 34/96/26 33/81/26
f 35/83/27 33/97/27 38/84/27
f 39/86/28 40/98/28 38/87/28
f 33/89/29 34/99/29 37/90/29
f 36/92/30 35/100/30 40/93/30
o cube.005
v 0.179238 0.324651 0.459241
v 0.267326 0.378591 0.350471
v 0.186240 0.182626 0.394479
v 0.274328 0.236567 0.285709
v -0.035735 0.457682 0.144258
v -0.123823 0.403741 0.253029
v -0.028733 0.315658 0.079497
v -0.116821 0.261717 0.188267
vn 0.5873 0.3596 -0.7251
vn 0.8082 -0.2109 0.5499
vn -0.5873 -0.3596 0.7251
vn -0.8082 0.2109 -0.5499
vn -0.0448 0.9090 0.4145
vn 0.0448 -0.9090 -0.4145
vt 0.375000 0.429688
vt 0.281250 0.468750
vt 0.281250 0.429688
vt 0.382812 0.382812
vt 0.343750 0.421875
vt 0.343750 0.382812
vt 0.468750 0.429688
vt 0.375000 0.468750
vt 0.429688 0.382812
vt 0.390625 0.421875
vt 0.390625 0.382812
vt 0.468750 0.468750
vt 0.562500 0.429688
vt 0.562500 0.468750
vt 0.000000 0.414062
vt 0.093750 0.453125
vt 0.093750 0.414062
vt 0.382812 0.421875
vt 0.429688 0.421875
vt 0.000000 0.453125
s 1
usemtl m_473b9039-2ee7-09d2-f37f-db0f97db6bdd
f 47/101/31 42/102/31 44/103/31
f 44/104/32 41/105/32 43/106/32
f 43/107/33 46/108/33 48/101/33
f 48/109/34 45/110/34 47/111/34
f 41/112/35 45/113/35 46/114/35
f 44/115/36 48/116/36 47/117/36
f 47/101/31 45/108/31 42/102/31
f 44/104/32 42/118/32 41/105/32
f 43/107/33 41/112/33 46/108/33
f 48/109/34 46/119/34 45/110/34
f 41/112/35 42/107/35 45/113/35
f 44/115/36 43/120/36 48/116/36
o cube.006
v 0.412808 0.118695 -0.289858
v 0.323705 0.072803 -0.401458
v 0.288883 0.129331 -0.195287
v 0.199780 0.083438 -0.306887
v 0.273254 0.428908 -0.507615
v 0.362358 0.474800 -0.396015
v 0.149329 0.439543 -0.413044
v 0.238433 0.485435 -0.301444
vn -0.5940 -0.3059 -0.7440
vn 0.1345 -0.9496 0.2831
vn 0.5940 0.3059 0.7440
vn -0.1345 0.9496 -0.2831
vn 0.7931 -0.0681 -0.6053
vn -0.7931 0.0681 0.6053
vt 0.125000 0.937500
vt 0.031250 0.968750
vt 0.031250 0.937500
vt 0.000000 0.968750
vt 0.000000 0.937500
vt 0.250000 0.937500
vt 0.156250 0.968750
vt 0.156250 0.937500
vt 0.125000 0.968750
vt 0.125000 1.000000
vt 0.218750 1.000000
vt 0.218750 0.968750
vt 0.250000 0.968750
vt 0.031250 1.000000
s 1
usemtl m_473b9039-2ee7-09d2-f37f-db0f97db6bdd
f 55/121/37 50/122/37 52/123/37
f 52/123/38 49/124/38 51/125/38
f 51/126/39 54/127/39 56/128/39
f 56/128/40 53/129/40 55/121/40
f 54/130/41 50/122/41 53/129/41
f 52/129/42 56/131/42 55/132/42
f 55/121/37 53/129/37 50/122/37
f 52/123/38 50/122/38 49/124/38
f 51/126/39 49/133/39 54/127/39
f 56/128/40 54/127/40 53/129/40
f 54/130/41 49/134/41 50/122/41
f 52/129/42 51/130/42 56/131/42
