# Blender 4.5.1 LTS
# www.blender.org
o cube
v 0.085182 -0.000000 -0.170364
v 0.085182 0.425910 0.170364
v 0.085182 0.000000 0.170364
v -0.085182 0.425910 0.170364
v -0.085182 0.000000 0.170364
v -0.085182 0.425910 -0.170364
v -0.085182 -0.000000 -0.170364
v 0.085182 0.425910 -0.170364
vn 1.0000 -0.0000 -0.0000
vn -0.0000 -0.0000 1.0000
vn -1.0000 -0.0000 -0.0000
vn -0.0000 -0.0000 -1.0000
vn -0.0000 1.0000 -0.0000
vn -0.0000 -1.0000 -0.0000
vt 0.343750 0.515625
vt 0.250000 0.625000
vt 0.250000 0.515625
vt 0.046875 0.453125
vt 0.000000 0.562500
vt 0.000000 0.453125
vt 0.437500 0.515625
vt 0.343750 0.625000
vt 0.109375 0.453125
vt 0.062500 0.562500
vt 0.062500 0.453125
vt 0.437500 0.625000
vt 0.531250 0.578125
vt 0.531250 0.625000
vt 0.531250 0.562500
vt 0.531250 0.515625
vt 0.046875 0.562500
vt 0.109375 0.562500
vt 0.437500 0.578125
vt 0.437500 0.562500
s 1
usemtl none
f 1/1/1 2/2/1 3/3/1
f 3/4/2 4/5/2 5/6/2
f 5/7/3 6/8/3 7/1/3
f 7/9/4 8/10/4 1/11/4
f 4/12/5 8/13/5 6/14/5
f 3/7/6 7/15/6 1/16/6
f 1/1/1 8/8/1 2/2/1
f 3/4/2 2/17/2 4/5/2
f 5/7/3 4/12/3 6/8/3
f 7/9/4 6/18/4 8/10/4
f 4/12/5 2/19/5 8/13/5
f 3/7/6 5/20/6 7/15/6
o cube.001
v 0.212956 0.425910 -0.212956
v 0.212956 0.766639 0.212956
v 0.212956 0.425910 0.212956
v -0.212954 0.766639 0.212956
v -0.212954 0.425911 0.212956
v -0.212954 0.766639 -0.212956
v -0.212954 0.425911 -0.212956
v 0.212956 0.766639 -0.212956
vn 1.0000 -0.0000 -0.0000
vn -0.0000 -0.0000 1.0000
vn -1.0000 -0.0000 -0.0000
vn -0.0000 -0.0000 -1.0000
vn -0.0000 1.0000 -0.0000
vn -0.0000 -1.0000 -0.0000
vt 0.515625 0.906250
vt 0.406250 1.000000
vt 0.406250 0.906250
vt 0.515625 0.812500
vt 0.406250 0.812500
vt 0.515625 0.718750
vt 0.406250 0.718750
vt 0.515625 0.625000
vt 0.406250 0.625000
vt 0.156250 1.000000
vt 0.265625 0.890625
vt 0.265625 1.000000
vt 0.156250 0.765625
vt 0.265625 0.875000
vt 0.265625 0.765625
vt 0.515625 1.000000
vt 0.156250 0.890625
vt 0.156250 0.875000
s 1
usemtl none
f 9/21/7 10/22/7 11/23/7
f 11/24/8 12/23/8 13/25/8
f 13/26/9 14/25/9 15/27/9
f 15/28/10 16/27/10 9/29/10
f 12/30/11 16/31/11 14/32/11
f 11/33/12 15/34/12 9/35/12
f 9/21/7 16/36/7 10/22/7
f 11/24/8 10/21/8 12/23/8
f 13/26/9 12/24/9 14/25/9
f 15/28/10 14/26/10 16/27/10
f 12/30/11 10/37/11 16/31/11
f 11/33/12 13/38/12 15/34/12
o cube.002
v 0.298138 0.766639 -0.298136
v 0.298138 0.851821 0.298136
v 0.298138 0.766639 0.298136
v -0.298136 0.851821 0.298136
v -0.298136 0.766639 0.298136
v -0.298136 0.851821 -0.298136
v -0.298136 0.766639 -0.298136
v 0.298138 0.851821 -0.298136
vn 1.0000 -0.0000 -0.0000
vn -0.0000 -0.0000 1.0000
vn -1.0000 -0.0000 -0.0000
vn -0.0000 -0.0000 -1.0000
vn -0.0000 1.0000 -0.0000
vn -0.0000 -1.0000 -0.0000
vt 0.218750 0.421875
vt 0.062500 0.437500
vt 0.062500 0.421875
vt 0.375000 0.421875
vt 0.218750 0.437500
vt 0.531250 0.421875
vt 0.375000 0.437500
vt 0.718750 0.484375
vt 0.562500 0.500000
vt 0.562500 0.484375
vt 0.000000 1.000000
vt 0.156250 0.843750
vt 0.156250 1.000000
vt 0.000000 0.687500
vt 0.156250 0.687500
vt 0.531250 0.437500
vt 0.718750 0.500000
vt 0.000000 0.843750
s 1
usemtl none
f 17/39/13 18/40/13 19/41/13
f 19/42/14 20/43/14 21/39/14
f 21/44/15 22/45/15 23/42/15
f 23/46/16 24/47/16 17/48/16
f 20/49/17 24/50/17 22/51/17
f 19/52/18 23/50/18 17/53/18
f 17/39/13 24/43/13 18/40/13
f 19/42/14 18/45/14 20/43/14
f 21/44/15 20/54/15 22/45/15
f 23/46/16 22/55/16 24/47/16
f 20/49/17 18/56/17 24/50/17
f 19/52/18 21/56/18 23/50/18
o cube.003
v 0.212956 0.851821 -0.212956
v 0.212956 1.277732 0.212956
v 0.212956 0.851821 0.212956
v -0.212954 1.277732 0.212956
v -0.212954 0.851821 0.212956
v -0.212954 1.277732 -0.212956
v -0.212954 0.851821 -0.212956
v 0.212956 1.277732 -0.212956
vn 1.0000 -0.0000 -0.0000
vn -0.0000 -0.0000 1.0000
vn -1.0000 -0.0000 -0.0000
vn -0.0000 -0.0000 -1.0000
vn -0.0000 1.0000 -0.0000
vn -0.0000 -1.0000 -0.0000
vt 0.265625 0.640625
vt 0.156250 0.750000
vt 0.156250 0.640625
vt 0.390625 0.890625
vt 0.281250 1.000000
vt 0.281250 0.890625
vt 0.390625 0.765625
vt 0.281250 0.875000
vt 0.281250 0.765625
vt 0.390625 0.640625
vt 0.281250 0.750000
vt 0.281250 0.640625
vt 0.000000 0.687500
vt 0.109375 0.578125
vt 0.109375 0.687500
vt 0.125000 0.515625
vt 0.234375 0.625000
vt 0.234375 0.515625
vt 0.265625 0.750000
vt 0.390625 1.000000
vt 0.390625 0.875000
vt 0.390625 0.750000
vt 0.000000 0.578125
vt 0.125000 0.625000
s 1
usemtl none
f 25/57/19 26/58/19 27/59/19
f 27/60/20 28/61/20 29/62/20
f 29/63/21 30/64/21 31/65/21
f 31/66/22 32/67/22 25/68/22
f 28/69/23 32/70/23 30/71/23
f 27/72/24 31/73/24 25/74/24
f 25/57/19 32/75/19 26/58/19
f 27/60/20 26/76/20 28/61/20
f 29/63/21 28/77/21 30/64/21
f 31/66/22 30/78/22 32/67/22
f 28/69/23 26/79/23 32/70/23
f 27/72/24 29/80/24 31/73/24
o cube.004
v 0.363600 0.000000 0.140564
v 0.298405 0.170364 0.297959
v 0.298405 0.000000 0.297959
v 0.062311 0.170364 0.200165
v 0.062311 0.000000 0.200165
v 0.127506 0.170364 0.042770
v 0.127505 0.000000 0.042770
v 0.363600 0.170364 0.140564
vn 0.9239 -0.0000 0.3827
vn -0.3827 -0.0000 0.9239
vn -0.9239 -0.0000 -0.3827
vn 0.3827 -0.0000 -0.9239
vn -0.0000 1.0000 -0.0000
vn -0.0000 -1.0000 -0.0000
vt 0.578125 0.390625
vt 0.531250 0.437500
vt 0.531250 0.390625
vt 0.187500 0.453125
vt 0.125000 0.500000
vt 0.125000 0.453125
vt 0.640625 0.953125
vt 0.593750 1.000000
vt 0.593750 0.953125
vt 0.250000 0.453125
vt 0.187500 0.500000
vt 0.250000 0.500000
vt 0.296875 0.437500
vt 0.296875 0.500000
vt 0.312500 0.437500
vt 0.359375 0.500000
vt 0.359375 0.437500
vt 0.578125 0.437500
vt 0.640625 1.000000
vt 0.250000 0.437500
vt 0.312500 0.500000
s 1
usemtl none
f 33/81/25 34/82/25 35/83/25
f 35/84/26 36/85/26 37/86/26
f 37/87/27 38/88/27 39/89/27
f 39/90/28 40/91/28 33/84/28
f 36/92/29 40/93/29 38/94/29
f 35/95/30 39/96/30 33/97/30
f 33/81/25 40/98/25 34/82/25
f 35/84/26 34/91/26 36/85/26
f 37/87/27 36/99/27 38/88/27
f 39/90/28 38/92/28 40/91/28
f 36/92/29 34/100/29 40/93/29
f 35/95/30 37/101/30 39/96/30
o cube.005
v 0.142902 0.255159 -0.109572
v 0.142903 0.430556 -0.109572
v 0.142903 0.342858 -0.021874
v 0.080890 0.430556 -0.109572
v 0.080890 0.342858 -0.021874
v 0.080890 0.342858 -0.197271
v 0.080890 0.255159 -0.109572
v 0.142903 0.342858 -0.197271
vn 1.0000 -0.0000 -0.0000
vn -0.0000 0.7071 0.7071
vn -1.0000 -0.0000 -0.0000
vn -0.0000 -0.7071 -0.7071
vn -0.0000 0.7071 -0.7071
vn -0.0000 -0.7071 0.7071
vt 0.593750 0.437500
vt 0.562500 0.468750
vt 0.562500 0.437500
vt 0.609375 0.625000
vt 0.593750 0.656250
vt 0.593750 0.625000
vt 0.281250 0.375000
vt 0.250000 0.406250
vt 0.250000 0.375000
vt 0.390625 0.375000
vt 0.375000 0.406250
vt 0.375000 0.375000
vt 0.625000 0.609375
vt 0.625000 0.625000
vt 0.406250 0.390625
vt 0.437500 0.406250
vt 0.437500 0.390625
vt 0.593750 0.468750
vt 0.609375 0.656250
vt 0.281250 0.406250
vt 0.390625 0.406250
vt 0.593750 0.609375
vt 0.406250 0.406250
s 1
usemtl none
f 41/102/31 42/103/31 43/104/31
f 43/105/32 44/106/32 45/107/32
f 45/108/33 46/109/33 47/110/33
f 47/111/34 48/112/34 41/113/34
f 44/107/35 48/114/35 46/115/35
f 43/116/36 47/117/36 41/118/36
f 41/102/31 48/119/31 42/103/31
f 43/105/32 42/120/32 44/106/32
f 45/108/33 44/121/33 46/109/33
f 47/111/34 46/122/34 48/112/34
f 44/107/35 42/123/35 48/114/35
f 43/116/36 45/124/36 47/117/36
o cube.006
v 0.142902 0.255159 0.109675
v 0.142903 0.430556 0.109675
v 0.142903 0.342858 0.197376
v 0.080890 0.430556 0.109675
v 0.080890 0.342858 0.197376
v 0.080890 0.342858 0.021976
v 0.080890 0.255159 0.109675
v 0.142903 0.342858 0.021976
vn 1.0000 -0.0000 -0.0000
vn -0.0000 0.7071 0.7071
vn -1.0000 -0.0000 -0.0000
vn -0.0000 -0.7071 -0.7071
vn -0.0000 0.7071 -0.7071
vn -0.0000 -0.7071 0.7071
vt 0.625000 0.718750
vt 0.593750 0.750000
vt 0.593750 0.718750
vt 0.609375 0.562500
vt 0.593750 0.593750
vt 0.593750 0.562500
vt 0.312500 0.375000
vt 0.281250 0.406250
vt 0.281250 0.375000
vt 0.453125 0.375000
vt 0.437500 0.406250
vt 0.437500 0.375000
vt 0.625000 0.546875
vt 0.625000 0.562500
vt 0.468750 0.390625
vt 0.500000 0.406250
vt 0.500000 0.390625
vt 0.625000 0.750000
vt 0.609375 0.593750
vt 0.312500 0.406250
vt 0.453125 0.406250
vt 0.593750 0.546875
vt 0.468750 0.406250
s 1
usemtl none
f 49/125/37 50/126/37 51/127/37
f 51/128/38 52/129/38 53/130/38
f 53/131/39 54/132/39 55/133/39
f 55/134/40 56/135/40 49/136/40
f 52/130/41 56/137/41 54/138/41
f 51/139/42 55/140/42 49/141/42
f 49/125/37 56/142/37 50/126/37
f 51/128/38 50/143/38 52/129/38
f 53/131/39 52/144/39 54/132/39
f 55/134/40 54/145/40 56/135/40
f 52/130/41 50/146/41 56/137/41
f 51/139/42 53/147/42 55/140/42
o cube.007
v 0.145381 0.288288 -0.057657
v 0.145381 0.397430 0.051485
v 0.145381 0.288288 0.051485
v 0.090812 0.397430 0.051485
v 0.090812 0.288288 0.051485
v 0.090812 0.397430 -0.057657
v 0.090812 0.288288 -0.057657
v 0.145381 0.397430 -0.057657
vn 1.0000 -0.0000 -0.0000
vn -0.0000 -0.0000 1.0000
vn -1.0000 -0.0000 -0.0000
vn -0.0000 -0.0000 -1.0000
vn -0.0000 1.0000 -0.0000
vn -0.0000 -1.0000 -0.0000
vt 0.156250 0.656250
vt 0.125000 0.687500
vt 0.125000 0.656250
vt 0.609375 0.687500
vt 0.593750 0.718750
vt 0.593750 0.687500
vt 0.156250 0.625000
vt 0.125000 0.625000
vt 0.328125 0.375000
vt 0.312500 0.406250
vt 0.312500 0.375000
vt 0.625000 0.671875
vt 0.625000 0.687500
vt 0.343750 0.390625
vt 0.375000 0.406250
vt 0.375000 0.390625
vt 0.156250 0.687500
vt 0.609375 0.718750
vt 0.328125 0.406250
vt 0.593750 0.671875
vt 0.343750 0.406250
s 1
usemtl none
f 57/148/43 58/149/43 59/150/43
f 59/151/44 60/152/44 61/153/44
f 61/154/45 62/150/45 63/155/45
f 63/156/46 64/157/46 57/158/46
f 60/153/47 64/159/47 62/160/47
f 59/161/48 63/162/48 57/163/48
f 57/148/43 64/164/43 58/149/43
f 59/151/44 58/165/44 60/152/44
f 61/154/45 60/148/45 62/150/45
f 63/156/46 62/166/46 64/157/46
f 60/153/47 58/167/47 64/159/47
f 59/161/48 61/168/48 63/162/48
o cube.008
v 0.298405 -0.000000 -0.297959
v 0.363600 0.170364 -0.140564
v 0.363600 -0.000000 -0.140564
v 0.127506 0.170364 -0.042770
v 0.127505 -0.000000 -0.042770
v 0.062311 0.170364 -0.200165
v 0.062311 -0.000000 -0.200165
v 0.298405 0.170364 -0.297959
vn 0.9239 -0.0000 -0.3827
vn 0.3827 -0.0000 0.9239
vn -0.9239 -0.0000 0.3827
vn -0.3827 -0.0000 -0.9239
vn -0.0000 1.0000 -0.0000
vn -0.0000 -1.0000 -0.0000
vt 0.531250 0.390625
vt 0.578125 0.437500
vt 0.578125 0.390625
vt 0.187500 0.453125
vt 0.250000 0.500000
vt 0.250000 0.453125
vt 0.593750 0.953125
vt 0.640625 1.000000
vt 0.640625 0.953125
vt 0.125000 0.453125
vt 0.187500 0.500000
vt 0.296875 0.500000
vt 0.250000 0.437500
vt 0.312500 0.437500
vt 0.359375 0.500000
vt 0.312500 0.500000
vt 0.531250 0.437500
vt 0.593750 1.000000
vt 0.125000 0.500000
vt 0.296875 0.437500
vt 0.359375 0.437500
s 1
usemtl none
f 65/169/49 66/170/49 67/171/49
f 67/172/50 68/173/50 69/174/50
f 69/175/51 70/176/51 71/177/51
f 71/178/52 72/179/52 65/172/52
f 68/180/53 72/181/53 70/173/53
f 65/182/54 69/183/54 71/184/54
f 65/169/49 72/185/49 66/170/49
f 67/172/50 66/179/50 68/173/50
f 69/175/51 68/186/51 70/176/51
f 71/178/52 70/187/52 72/179/52
f 68/180/53 66/188/53 72/181/53
f 65/182/54 67/189/54 69/183/54
o cube.009
v -0.035272 0.000000 0.433322
v -0.199831 0.170364 0.389228
v -0.199831 0.000000 0.389228
v -0.133692 0.170364 0.142389
v -0.133692 0.000000 0.142389
v 0.030867 0.170364 0.186482
v 0.030867 0.000000 0.186482
v -0.035272 0.170364 0.433322
vn -0.2588 -0.0000 0.9659
vn -0.9659 -0.0000 -0.2588
vn 0.2588 -0.0000 -0.9659
vn 0.9659 -0.0000 0.2588
vn -0.0000 1.0000 -0.0000
vn -0.0000 -1.0000 -0.0000
vt 0.578125 0.390625
vt 0.531250 0.437500
vt 0.531250 0.390625
vt 0.187500 0.453125
vt 0.125000 0.500000
vt 0.125000 0.453125
vt 0.640625 0.953125
vt 0.593750 1.000000
vt 0.593750 0.953125
vt 0.250000 0.453125
vt 0.187500 0.500000
vt 0.296875 0.500000
vt 0.250000 0.437500
vt 0.296875 0.437500
vt 0.312500 0.437500
vt 0.359375 0.500000
vt 0.359375 0.437500
vt 0.578125 0.437500
vt 0.640625 1.000000
vt 0.250000 0.500000
vt 0.312500 0.500000
s 1
usemtl none
f 73/190/55 74/191/55 75/192/55
f 75/193/56 76/194/56 77/195/56
f 77/196/57 78/197/57 79/198/57
f 79/199/58 80/200/58 73/193/58
f 78/201/59 74/202/59 80/203/59
f 75/204/60 79/205/60 73/206/60
f 73/190/55 80/207/55 74/191/55
f 75/193/56 74/200/56 76/194/56
f 77/196/57 76/208/57 78/197/57
f 79/199/58 78/209/58 80/200/58
f 78/201/59 76/209/59 74/202/59
f 75/204/60 77/210/60 79/205/60
o cube.010
v -0.199831 -0.000000 -0.389228
v -0.035272 0.170364 -0.433322
v -0.035272 -0.000000 -0.433322
v 0.030867 0.170364 -0.186482
v 0.030867 -0.000000 -0.186482
v -0.133692 0.170364 -0.142389
v -0.133692 -0.000000 -0.142389
v -0.199831 0.170364 -0.389228
vn -0.2588 -0.0000 -0.9659
vn 0.9659 -0.0000 -0.2588
vn 0.2588 -0.0000 0.9659
vn -0.9659 -0.0000 0.2588
vn -0.0000 1.0000 -0.0000
vn -0.0000 -1.0000 -0.0000
vt 0.531250 0.390625
vt 0.578125 0.437500
vt 0.578125 0.390625
vt 0.187500 0.453125
vt 0.250000 0.500000
vt 0.250000 0.453125
vt 0.593750 0.953125
vt 0.640625 1.000000
vt 0.640625 0.953125
vt 0.125000 0.453125
vt 0.187500 0.500000
vt 0.296875 0.500000
vt 0.250000 0.437500
vt 0.312500 0.437500
vt 0.359375 0.500000
vt 0.312500 0.500000
vt 0.531250 0.437500
vt 0.593750 1.000000
vt 0.125000 0.500000
vt 0.296875 0.437500
vt 0.359375 0.437500
s 1
usemtl none
f 81/211/61 82/212/61 83/213/61
f 83/214/62 84/215/62 85/216/62
f 85/217/63 86/218/63 87/219/63
f 87/220/64 88/221/64 81/214/64
f 84/222/65 88/223/65 86/215/65
f 81/224/66 85/225/66 87/226/66
f 81/211/61 88/227/61 82/212/61
f 83/214/62 82/221/62 84/215/62
f 85/217/63 84/228/63 86/218/63
f 87/220/64 86/229/64 88/221/64
f 84/222/65 82/230/65 88/223/65
f 81/224/66 83/231/66 85/225/66
