# Blender 4.5.1 LTS
# www.blender.org
o Body
v 0.062500 1.125000 0.687500
v 0.062500 1.125000 -0.687500
v 0.062500 0.000000 0.687500
v 0.062500 -0.000000 -0.687500
v -1.687500 1.125000 0.687500
v -1.687500 1.125000 -0.687500
v -1.687500 0.000000 0.687500
v -1.687500 -0.000000 -0.687500
vn 1.0000 -0.0000 -0.0000
vn -1.0000 -0.0000 -0.0000
vn -0.0000 1.0000 -0.0000
vn -0.0000 -1.0000 -0.0000
vn -0.0000 -0.0000 1.0000
vn -0.0000 -0.0000 -1.0000
vt 0.343750 0.929688
vt 0.429688 0.859375
vt 0.429688 0.929688
vt 0.210938 0.656250
vt 0.125000 0.585938
vt 0.210938 0.585938
vt 0.281250 0.914062
vt 0.171875 1.000000
vt 0.171875 0.914062
vt 0.109375 0.765625
vt 0.000000 0.679688
vt 0.109375 0.679688
vt 0.375000 0.859375
vt 0.265625 0.789062
vt 0.375000 0.789062
vt 0.281250 1.000000
vt 0.390625 0.929688
vt 0.390625 1.000000
vt 0.343750 0.859375
vt 0.125000 0.656250
vt 0.000000 0.765625
vt 0.265625 0.859375
vt 0.281250 0.929688
s 1
usemtl m_15bc3d7a-37f8-d921-2072-82719e1c9bee
f 1/1/1 4/2/1 2/3/1
f 5/4/2 8/5/2 7/6/2
f 1/7/3 6/8/3 5/9/3
f 3/10/4 8/11/4 4/12/4
f 1/13/5 7/14/5 3/15/5
f 2/16/6 8/17/6 6/18/6
f 1/1/1 3/19/1 4/2/1
f 5/4/2 6/20/2 8/5/2
f 1/7/3 2/16/3 6/8/3
f 3/10/4 7/21/4 8/11/4
f 1/13/5 5/22/5 7/14/5
f 2/16/6 4/23/6 8/17/6
o Body1
v -1.312500 1.000000 0.625000
v -1.312500 1.000000 -0.625000
v -1.312500 0.125000 0.625000
v -1.312500 0.125000 -0.625000
v -4.062500 1.000000 0.625000
v -4.062500 1.000000 -0.625000
v -4.062500 0.125000 0.625000
v -4.062500 0.125000 -0.625000
vn 1.0000 -0.0000 -0.0000
vn -1.0000 -0.0000 -0.0000
vn -0.0000 1.0000 -0.0000
vn -0.0000 -1.0000 -0.0000
vn -0.0000 -0.0000 1.0000
vn -0.0000 -0.0000 -1.0000
vt 0.398438 0.812500
vt 0.476562 0.757812
vt 0.476562 0.812500
vt 0.398438 0.703125
vt 0.476562 0.703125
vt 0.171875 0.921875
vt 0.000000 1.000000
vt 0.000000 0.921875
vt 0.000000 0.843750
vt 0.171875 0.843750
vt 0.343750 0.914062
vt 0.171875 0.859375
vt 0.343750 0.859375
vt 0.109375 0.765625
vt 0.281250 0.710938
vt 0.281250 0.765625
vt 0.398438 0.757812
vt 0.171875 1.000000
vt 0.171875 0.914062
vt 0.109375 0.710938
s 1
usemtl m_15bc3d7a-37f8-d921-2072-82719e1c9bee
f 9/24/7 12/25/7 10/26/7
f 13/25/8 16/27/8 15/28/8
f 9/29/9 14/30/9 13/31/9
f 11/29/10 16/32/10 12/33/10
f 9/34/11 15/35/11 11/36/11
f 10/37/12 16/38/12 14/39/12
f 9/24/7 11/40/7 12/25/7
f 13/25/8 14/40/8 16/27/8
f 9/29/9 10/41/9 14/30/9
f 11/29/10 15/31/10 16/32/10
f 9/34/11 13/42/11 15/35/11
f 10/37/12 12/43/12 16/38/12
o Body2
v -3.500000 0.937500 0.500000
v -3.500000 0.937500 -0.500000
v -3.500000 0.312500 0.500000
v -3.500000 0.312500 -0.500000
v -5.375000 0.937500 0.500000
v -5.375000 0.937500 -0.500000
v -5.375000 0.312500 0.500000
v -5.375000 0.312500 -0.500000
vn 1.0000 -0.0000 -0.0000
vn -1.0000 -0.0000 -0.0000
vn -0.0000 1.0000 -0.0000
vn -0.0000 -1.0000 -0.0000
vn -0.0000 -0.0000 1.0000
vn -0.0000 -0.0000 -1.0000
vt 0.429688 0.929688
vt 0.492188 0.890625
vt 0.492188 0.929688
vt 0.117188 0.554688
vt 0.054688 0.515625
vt 0.117188 0.515625
vt 0.398438 0.726562
vt 0.281250 0.789062
vt 0.281250 0.726562
vt 0.281250 0.664062
vt 0.398438 0.664062
vt 0.492188 0.617188
vt 0.375000 0.578125
vt 0.492188 0.578125
vt 0.390625 1.000000
vt 0.507812 0.960938
vt 0.507812 1.000000
vt 0.429688 0.890625
vt 0.054688 0.554688
vt 0.398438 0.789062
vt 0.375000 0.617188
vt 0.390625 0.960938
s 1
usemtl m_15bc3d7a-37f8-d921-2072-82719e1c9bee
f 17/44/13 20/45/13 18/46/13
f 21/47/14 24/48/14 23/49/14
f 17/50/15 22/51/15 21/52/15
f 19/50/16 24/53/16 20/54/16
f 17/55/17 23/56/17 19/57/17
f 18/58/18 24/59/18 22/60/18
f 17/44/13 19/61/13 20/45/13
f 21/47/14 22/62/14 24/48/14
f 17/50/15 18/63/15 22/51/15
f 19/50/16 23/52/16 24/53/16
f 17/55/17 21/64/17 23/56/17
f 18/58/18 20/65/18 24/59/18
o FinL
v -0.375000 0.500000 -0.312500
v -0.375000 0.500000 -1.312500
v -0.375000 0.125000 -0.312500
v -0.375000 0.125000 -1.312500
v -1.250000 0.500000 -0.312500
v -1.250000 0.500000 -1.312500
v -1.250000 0.125000 -0.312500
v -1.250000 0.125000 -1.312500
vn 1.0000 -0.0000 -0.0000
vn -1.0000 -0.0000 -0.0000
vn -0.0000 1.0000 -0.0000
vn -0.0000 -1.0000 -0.0000
vn -0.0000 -0.0000 1.0000
vn -0.0000 -0.0000 -1.0000
vt 0.476562 0.789062
vt 0.539062 0.765625
vt 0.539062 0.789062
vt 0.476562 0.742188
vt 0.539062 0.742188
vt 0.421875 0.515625
vt 0.367188 0.578125
vt 0.367188 0.515625
vt 0.476562 0.578125
vt 0.476562 0.515625
vt 0.531250 0.578125
vt 0.476562 0.554688
vt 0.531250 0.554688
vt 0.531250 0.531250
vt 0.476562 0.765625
vt 0.421875 0.578125
vt 0.476562 0.531250
s 1
usemtl m_15bc3d7a-37f8-d921-2072-82719e1c9bee
f 25/66/19 28/67/19 26/68/19
f 29/67/20 32/69/20 31/70/20
f 25/71/21 30/72/21 29/73/21
f 27/74/22 32/71/22 28/75/22
f 25/76/23 31/77/23 27/78/23
f 26/77/24 32/79/24 30/78/24
f 25/66/19 27/80/19 28/67/19
f 29/67/20 30/80/20 32/69/20
f 25/71/21 26/81/21 30/72/21
f 27/74/22 31/81/22 32/71/22
f 25/76/23 29/74/23 31/77/23
f 26/77/24 28/82/24 32/79/24
o FinL1
v -0.500000 0.375000 -1.187500
v -0.500000 0.375000 -1.937500
v -0.500000 0.250000 -1.187500
v -0.500000 0.250000 -1.937500
v -1.125000 0.375000 -1.187500
v -1.125000 0.375000 -1.937500
v -1.125000 0.250000 -1.187500
v -1.125000 0.250000 -1.937500
vn 1.0000 -0.0000 -0.0000
vn -1.0000 -0.0000 -0.0000
vn -0.0000 1.0000 -0.0000
vn -0.0000 -1.0000 -0.0000
vn -0.0000 -0.0000 1.0000
vn -0.0000 -0.0000 -1.0000
vt 0.218750 0.859375
vt 0.265625 0.851562
vt 0.265625 0.859375
vt 0.218750 0.843750
vt 0.265625 0.843750
vt 0.257812 0.507812
vt 0.218750 0.554688
vt 0.218750 0.507812
vt 0.296875 0.554688
vt 0.296875 0.507812
vt 0.101562 0.679688
vt 0.062500 0.671875
vt 0.101562 0.671875
vt 0.101562 0.664062
vt 0.218750 0.851562
vt 0.257812 0.554688
vt 0.062500 0.679688
vt 0.062500 0.664062
s 1
usemtl m_15bc3d7a-37f8-d921-2072-82719e1c9bee
f 33/83/25 36/84/25 34/85/25
f 37/84/26 40/86/26 39/87/26
f 33/88/27 38/89/27 37/90/27
f 35/91/28 40/88/28 36/92/28
f 33/93/29 39/94/29 35/95/29
f 34/94/30 40/96/30 38/95/30
f 33/83/25 35/97/25 36/84/25
f 37/84/26 38/97/26 40/86/26
f 33/88/27 34/98/27 38/89/27
f 35/91/28 39/98/28 40/88/28
f 33/93/29 37/99/29 39/94/29
f 34/94/30 36/100/30 40/96/30
o FinL2
v -0.562500 0.312500 -1.625000
v -0.562500 0.312500 -2.500000
v -0.562500 0.312500 -1.625000
v -0.562500 0.312500 -2.500000
v -1.062500 0.312500 -1.625000
v -1.062500 0.312500 -2.500000
v -1.062500 0.312500 -1.625000
v -1.062500 0.312500 -2.500000
vn -0.0000 -0.0000 -0.0000
vn -0.0000 1.0000 -0.0000
vn -0.0000 -1.0000 -0.0000
vn -0.0000 -0.0000 1.0000
vt 0.000000 0.945312
vt 0.000000 1.000000
vt 0.507812 0.835938
vt 0.476562 0.890625
vt 0.476562 0.835938
vt 0.148438 0.523438
vt 0.117188 0.468750
vt 0.148438 0.468750
vt 0.031250 1.000000
vt 0.507812 0.890625
vt 0.117188 0.523438
s 0
usemtl m_15bc3d7a-37f8-d921-2072-82719e1c9bee
f 41/101/31 42/102/31 44/102/31
f 45/101/31 47/101/31 48/102/31
s 1
f 41/103/32 46/104/32 45/105/32
f 43/106/33 48/107/33 44/108/33
s 0
f 41/109/34 43/109/34 47/102/34
f 42/109/34 46/102/34 48/102/34
f 41/101/31 43/101/31 42/102/31
f 45/101/31 46/102/31 47/101/31
s 1
f 41/103/32 42/110/32 46/104/32
f 43/106/33 47/111/33 48/107/33
s 0
f 41/109/34 45/102/34 43/109/34
f 42/109/34 44/109/34 46/102/34
o FinR
v -0.375000 0.500000 1.312500
v -0.375000 0.500000 0.312500
v -0.375000 0.125000 1.312500
v -0.375000 0.125000 0.312500
v -1.250000 0.500000 1.312500
v -1.250000 0.500000 0.312500
v -1.250000 0.125000 1.312500
v -1.250000 0.125000 0.312500
vn 1.0000 -0.0000 -0.0000
vn -1.0000 -0.0000 -0.0000
vn -0.0000 1.0000 -0.0000
vn -0.0000 -1.0000 -0.0000
vn -0.0000 -0.0000 1.0000
vn -0.0000 -0.0000 -1.0000
vt 0.476562 0.835938
vt 0.539062 0.812500
vt 0.539062 0.835938
vt 0.476562 0.789062
vt 0.539062 0.789062
vt 0.179688 0.523438
vt 0.125000 0.585938
vt 0.125000 0.523438
vt 0.054688 0.578125
vt 0.000000 0.515625
vt 0.054688 0.515625
vt 0.531250 0.671875
vt 0.476562 0.648438
vt 0.531250 0.648438
vt 0.531250 0.625000
vt 0.476562 0.812500
vt 0.179688 0.585938
vt 0.000000 0.578125
vt 0.476562 0.671875
vt 0.476562 0.625000
s 1
usemtl m_15bc3d7a-37f8-d921-2072-82719e1c9bee
f 49/112/35 52/113/35 50/114/35
f 53/113/36 56/115/36 55/116/36
f 49/117/37 54/118/37 53/119/37
f 51/120/38 56/121/38 52/122/38
f 49/123/39 55/124/39 51/125/39
f 50/124/40 56/126/40 54/125/40
f 49/112/35 51/127/35 52/113/35
f 53/113/36 54/127/36 56/115/36
f 49/117/37 50/128/37 54/118/37
f 51/120/38 55/129/38 56/121/38
f 49/123/39 53/130/39 55/124/39
f 50/124/40 52/131/40 56/126/40
o FinR1
v -0.500000 0.375000 1.937500
v -0.500000 0.375000 1.187500
v -0.500000 0.250000 1.937500
v -0.500000 0.250000 1.187500
v -1.125000 0.375000 1.937500
v -1.125000 0.375000 1.187500
v -1.125000 0.250000 1.937500
v -1.125000 0.250000 1.187500
vn 1.0000 -0.0000 -0.0000
vn -1.0000 -0.0000 -0.0000
vn -0.0000 1.0000 -0.0000
vn -0.0000 -1.0000 -0.0000
vn -0.0000 -0.0000 1.0000
vn -0.0000 -0.0000 -1.0000
vt 0.171875 0.859375
vt 0.218750 0.851562
vt 0.218750 0.859375
vt 0.171875 0.843750
vt 0.218750 0.843750
vt 0.281250 0.664062
vt 0.242188 0.710938
vt 0.242188 0.664062
vt 0.218750 0.554688
vt 0.179688 0.507812
vt 0.218750 0.507812
vt 0.320312 0.929688
vt 0.281250 0.921875
vt 0.320312 0.921875
vt 0.320312 0.914062
vt 0.171875 0.851562
vt 0.281250 0.710938
vt 0.179688 0.554688
vt 0.281250 0.929688
vt 0.281250 0.914062
s 1
usemtl m_15bc3d7a-37f8-d921-2072-82719e1c9bee
f 57/132/41 60/133/41 58/134/41
f 61/133/42 64/135/42 63/136/42
f 57/137/43 62/138/43 61/139/43
f 59/140/44 64/141/44 60/142/44
f 57/143/45 63/144/45 59/145/45
f 58/144/46 64/146/46 62/145/46
f 57/132/41 59/147/41 60/133/41
f 61/133/42 62/147/42 64/135/42
f 57/137/43 58/148/43 62/138/43
f 59/140/44 63/149/44 64/141/44
f 57/143/45 61/150/45 63/144/45
f 58/144/46 60/151/46 64/146/46
o FinR2
v -0.562500 0.312500 2.500000
v -0.562500 0.312500 1.625000
v -0.562500 0.312500 2.500000
v -0.562500 0.312500 1.625000
v -1.062500 0.312500 2.500000
v -1.062500 0.312500 1.625000
v -1.062500 0.312500 2.500000
v -1.062500 0.312500 1.625000
vn -0.0000 -0.0000 -0.0000
vn -0.0000 1.0000 -0.0000
vn -0.0000 -1.0000 -0.0000
vn -0.0000 -0.0000 1.0000
vt 0.000000 0.945312
vt 0.000000 1.000000
vt 0.328125 0.500000
vt 0.296875 0.554688
vt 0.296875 0.500000
vt 0.359375 0.554688
vt 0.359375 0.500000
vt 0.031250 1.000000
vt 0.328125 0.554688
s 0
usemtl m_15bc3d7a-37f8-d921-2072-82719e1c9bee
f 65/152/47 66/153/47 68/153/47
f 69/152/47 71/152/47 72/153/47
s 1
f 65/154/48 70/155/48 69/156/48
f 67/157/49 72/154/49 68/158/49
s 0
f 65/159/50 67/159/50 71/153/50
f 66/159/50 70/153/50 72/153/50
f 65/152/47 67/152/47 66/153/47
f 69/152/47 70/153/47 71/152/47
s 1
f 65/154/48 66/160/48 70/155/48
f 67/157/49 71/160/49 72/154/49
s 0
f 65/159/50 69/153/50 67/159/50
f 66/159/50 68/159/50 70/153/50
o Head
v 1.500000 1.062500 0.625000
v 1.500000 1.062500 -0.625000
v 1.500000 0.187500 0.625000
v 1.500000 0.187500 -0.625000
v -0.625000 1.062500 0.625000
v -0.625000 1.062500 -0.625000
v -0.625000 0.187500 0.625000
v -0.625000 0.187500 -0.625000
vn 1.0000 -0.0000 -0.0000
vn -1.0000 -0.0000 -0.0000
vn -0.0000 1.0000 -0.0000
vn -0.0000 -1.0000 -0.0000
vn -0.0000 -0.0000 1.0000
vn -0.0000 -0.0000 -1.0000
vt 0.210938 0.609375
vt 0.289062 0.554688
vt 0.289062 0.609375
vt 0.367188 0.609375
vt 0.367188 0.554688
vt 0.132812 0.765625
vt 0.000000 0.843750
vt 0.000000 0.765625
vt 0.265625 0.843750
vt 0.265625 0.765625
vt 0.242188 0.710938
vt 0.109375 0.656250
vt 0.242188 0.656250
vt 0.242188 0.664062
vt 0.375000 0.609375
vt 0.375000 0.664062
vt 0.210938 0.554688
vt 0.132812 0.843750
vt 0.109375 0.710938
vt 0.242188 0.609375
s 1
usemtl m_15bc3d7a-37f8-d921-2072-82719e1c9bee
f 73/161/51 76/162/51 74/163/51
f 77/164/52 80/162/52 79/165/52
f 73/166/53 78/167/53 77/168/53
f 75/169/54 80/166/54 76/170/54
f 73/171/55 79/172/55 75/173/55
f 74/174/56 80/175/56 78/176/56
f 73/161/51 75/177/51 76/162/51
f 77/164/52 78/163/52 80/162/52
f 73/166/53 74/178/53 78/167/53
f 75/169/54 79/178/54 80/166/54
f 73/171/55 77/179/55 79/172/55
f 74/174/56 76/180/56 80/175/56
o Tail
v -5.187500 0.875000 0.375000
v -5.187500 0.875000 -0.375000
v -5.187500 0.375000 0.375000
v -5.187500 0.375000 -0.375000
v -6.812500 0.875000 0.375000
v -6.812500 0.875000 -0.375000
v -6.812500 0.375000 0.375000
v -6.812500 0.375000 -0.375000
vn 1.0000 -0.0000 -0.0000
vn -1.0000 -0.0000 -0.0000
vn -0.0000 1.0000 -0.0000
vn -0.0000 -1.0000 -0.0000
vn -0.0000 -0.0000 1.0000
vn -0.0000 -0.0000 -1.0000
vt 0.429688 0.890625
vt 0.476562 0.859375
vt 0.476562 0.890625
vt 0.523438 0.742188
vt 0.476562 0.710938
vt 0.523438 0.710938
vt 0.476562 0.812500
vt 0.375000 0.859375
vt 0.375000 0.812500
vt 0.476562 0.664062
vt 0.375000 0.617188
vt 0.476562 0.617188
vt 0.492188 0.960938
vt 0.390625 0.929688
vt 0.492188 0.929688
vt 0.398438 0.703125
vt 0.500000 0.671875
vt 0.500000 0.703125
vt 0.429688 0.859375
vt 0.476562 0.742188
vt 0.375000 0.664062
vt 0.390625 0.960938
vt 0.398438 0.671875
s 1
usemtl m_15bc3d7a-37f8-d921-2072-82719e1c9bee
f 81/181/57 84/182/57 82/183/57
f 85/184/58 88/185/58 87/186/58
f 81/187/59 86/188/59 85/189/59
f 83/190/60 88/191/60 84/192/60
f 81/193/61 87/194/61 83/195/61
f 82/196/62 88/197/62 86/198/62
f 81/181/57 83/199/57 84/182/57
f 85/184/58 86/200/58 88/185/58
f 81/187/59 82/182/59 86/188/59
f 83/190/60 87/201/60 88/191/60
f 81/193/61 85/202/61 87/194/61
f 82/196/62 84/203/62 88/197/62
o TailFin
v -6.500000 0.625000 0.812500
v -6.500000 0.625000 -0.812500
v -6.500000 0.625000 0.812500
v -6.500000 0.625000 -0.812500
v -7.500000 0.625000 0.812500
v -7.500000 0.625000 -0.812500
v -7.500000 0.625000 0.812500
v -7.500000 0.625000 -0.812500
vn -0.0000 -0.0000 -0.0000
vn -0.0000 1.0000 -0.0000
vn -0.0000 -1.0000 -0.0000
vn -0.0000 -0.0000 1.0000
vt 0.000000 0.898438
vt 0.000000 1.000000
vt 0.062500 0.578125
vt 0.000000 0.679688
vt 0.000000 0.578125
vt 0.125000 0.656250
vt 0.062500 0.554688
vt 0.125000 0.554688
vt 0.062500 1.000000
vt 0.062500 0.679688
vt 0.062500 0.656250
s 0
usemtl m_15bc3d7a-37f8-d921-2072-82719e1c9bee
f 89/204/63 90/205/63 92/205/63
f 93/204/63 95/204/63 96/205/63
s 1
f 89/206/64 94/207/64 93/208/64
f 91/209/65 96/210/65 92/211/65
s 0
f 89/212/66 91/212/66 95/205/66
f 90/212/66 94/205/66 96/205/66
f 89/204/63 91/204/63 90/205/63
f 93/204/63 94/205/63 95/204/63
s 1
f 89/206/64 90/213/64 94/207/64
f 91/209/65 95/214/65 96/210/65
s 0
f 89/212/66 93/205/66 91/212/66
f 90/212/66 92/212/66 94/205/66
